<svg xmlns="http://www.w3.org/2000/svg" version="1.1" xmlns:xlink="http://www.w3.org/1999/xlink" width="512" height="512" x="0" y="0" viewBox="0 0 64 64" style="enable-background:new 0 0 512 512" xml:space="preserve"><g><path fill="#e3e8f6" d="M32 10 12 29.999V58h40V29.999z" opacity="1" data-original="#e3e8f6"/><path fill="#f8f7fe" d="M52 30 32 10 12.551 29.448C15.319 45.7 28.342 58 44 58h8z" opacity="1" data-original="#f8f7fe"/><path fill="#f3a845" d="M36 43.537V28a4 4 0 0 0-4-4 4 4 0 0 0-4 4v15.537a6 6 0 1 0 8 0z" opacity="1" data-original="#f3a845"/><path fill="#eecc61" d="M36 43.537V28a4 4 0 0 0-8 0v6.5c0 8.116 3.794 14.922 8.933 16.9A5.969 5.969 0 0 0 36 43.537z" opacity="1" data-original="#eecc61"/><path fill="#77a0d3" d="m32 10 22.171 22.171a2.83 2.83 0 0 0 2 .829A2.829 2.829 0 0 0 59 30.171a2.827 2.827 0 0 0-.828-2L32 2 5.828 28.172a2.827 2.827 0 0 0-.828 2A2.828 2.828 0 0 0 7.828 33a2.815 2.815 0 0 0 2-.825zM8 58h48v4H8z" opacity="1" data-original="#77a0d3"/><path fill="#e3e8f6" d="M47 11v6l6 6.07V11z" opacity="1" data-original="#e3e8f6"/><path fill="#77a0d3" d="M45 7h10v4H45z" opacity="1" data-original="#77a0d3"/><path fill="#92b3dc" d="M56 58H8v.813C11.505 60.96 23.8 62 38 62h18zM55 7h-9.948c.448 2.25 3.831 4 7.948 4h2z" opacity="1" data-original="#92b3dc"/><circle cx="32" cy="48" r="2" fill="#ffffff" opacity="1" data-original="#ffffff"/><path d="M53.464 32.878A3.8 3.8 0 0 0 56.17 34a3.828 3.828 0 0 0 2.706-6.535L54 22.586V12h1a1 1 0 0 0 1-1V7a1 1 0 0 0-1-1H45a1 1 0 0 0-1 1v4a1 1 0 0 0 1 1h1v2.586L32.707 1.293a1 1 0 0 0-1.414 0L5.121 27.465a3.828 3.828 0 0 0 5.411 5.417l.468-.468V57H8a1 1 0 0 0-1 1v4a1 1 0 0 0 1 1h48a1 1 0 0 0 1-1v-4a1 1 0 0 0-1-1h-3V32.414zM46 8h8v2h-8zm2 4h4v8.586l-4-4zM9.118 31.468a1.829 1.829 0 0 1-2.583-2.589L32 3.414l25.465 25.465A1.829 1.829 0 0 1 56.171 32a1.754 1.754 0 0 1-1.293-.536L32.707 9.293a1 1 0 0 0-1.414 0zM55 61H9v-2h46zm-4-4H13V30.414l19-19 19 19z" fill="#000000" opacity="1" data-original="#000000"/><path d="M27 28v15.11a6.994 6.994 0 0 0 3.51 11.735 7.234 7.234 0 0 0 1.479.155A6.992 6.992 0 0 0 37 43.11V28a5 5 0 0 0-10 0zm8 0v15.537a1 1 0 0 0 .332.744 5 5 0 1 1-6.665 0 1 1 0 0 0 .333-.744V40h4v-2h-4v-2h4v-2h-4v-2h4v-2h-4v-2a3 3 0 0 1 6 0z" fill="#000000" opacity="1" data-original="#000000"/><path d="M29 48a3 3 0 1 0 3-3 3 3 0 0 0-3 3zm4 0a1 1 0 1 1-1-1 1 1 0 0 1 1 1zM42 41a3 3 0 0 0 3-3h-2a1 1 0 0 1-2 0v-2a1 1 0 0 1 2 0h2a3 3 0 0 0-6 0v2a3 3 0 0 0 3 3zM45 31h2v2h-2z" fill="#000000" opacity="1" data-original="#000000"/></g></svg>