<svg xmlns="http://www.w3.org/2000/svg" version="1.1" xmlns:xlink="http://www.w3.org/1999/xlink" width="512" height="512" x="0" y="0" viewBox="0 0 512 512" style="enable-background:new 0 0 512 512" xml:space="preserve"><g><path d="M336 424.5c0 44.18-35.82 80-80 80s-80-35.82-80-80c0-27.06 13.44-50.98 34-65.46V53.5c0-25.41 20.59-46 46-46 12.7 0 24.2 5.15 32.53 13.47C296.85 29.3 302 40.8 302 53.5v305.54c20.56 14.48 34 38.4 34 65.46z" style="" fill="#cfe0e9" data-original="#cfe0e9"/><path d="M336 424.5c0 44.18-35.82 80-80 80-5.13 0-10.14-.5-15-1.43 37.01-7.02 65-39.52 65-78.57 0-.42-.01-.84-.02-1.26-.4-15.78-8.28-30.53-21.25-39.67L272 374.61V53.5c0-12.7-5.15-24.2-13.47-32.53A46.087 46.087 0 0 0 241 10.01c4.7-1.62 9.74-2.51 15-2.51 12.7 0 24.2 5.15 32.53 13.47C296.85 29.3 302 40.8 302 53.5v305.54c20.56 14.48 34 38.4 34 65.46z" style="" fill="#abbfcf" data-original="#abbfcf"/><path d="M256 474.5c-27.57 0-50-22.43-50-50 0-16.249 7.953-31.551 21.273-40.932L240 374.605V53.5c0-8.822 7.178-16 16-16 4.274 0 8.298 1.668 11.33 4.696A15.912 15.912 0 0 1 272 53.5v321.105l12.727 8.962C298.047 392.949 306 408.251 306 424.5c0 27.57-22.43 50-50 50z" style="" fill="#8cf2ff" data-original="#8cf2ff"/><circle cx="489.5" cy="116.998" r="15" style="" fill="#ffd659" data-original="#ffd659"/><circle cx="22.5" cy="262.162" r="15" style="" fill="#ffd659" data-original="#ffd659"/><circle cx="73" cy="33" r="15" style="" fill="#ffd659" data-original="#ffd659"/><circle cx="439" cy="431.685" r="15" style="" fill="#ffd659" data-original="#ffd659"/><circle cx="73" cy="404.67" r="15" style="" fill="#ffd659" data-original="#ffd659"/><path d="M284.727 383.568 272 374.605V196.846h-32v177.759l-12.727 8.962C213.953 392.949 206 408.251 206 424.5c0 27.57 22.43 50 50 50s50-22.43 50-50c0-16.249-7.953-31.551-21.273-40.932z" style="" fill="#ff663b" data-original="#ff663b"/><circle cx="363" cy="206.26" r="15" style="" fill="#ffd659" data-original="#ffd659"/><path d="M489.5 94.498c-9.777 0-18.114 6.271-21.21 15H309.5V53.5c0-14.281-5.563-27.716-15.67-37.836C283.718 5.563 270.282 0 256 0c-29.5 0-53.5 24-53.5 53.5v74.167c0 4.142 3.357 7.5 7.5 7.5s7.5-3.358 7.5-7.5V53.5c0-21.229 17.271-38.5 38.5-38.5 10.279 0 19.95 4.005 27.224 11.27 7.271 7.281 11.276 16.952 11.276 27.23v242.167c0 4.142 3.357 7.5 7.5 7.5s7.5-3.358 7.5-7.5V291.5h122v118.975c-8.729 3.096-15 11.432-15 21.21 0 12.407 10.094 22.5 22.5 22.5s22.5-10.093 22.5-22.5c0-9.777-6.271-18.114-15-21.21V284a7.5 7.5 0 0 0-7.5-7.5H309.5v-62.74h32.29c3.096 8.729 11.433 15 21.21 15 12.406 0 22.5-10.093 22.5-22.5s-10.094-22.5-22.5-22.5c-9.777 0-18.114 6.271-21.21 15H309.5v-74.262h158.79c3.096 8.729 11.433 15 21.21 15 12.406 0 22.5-10.093 22.5-22.5s-10.094-22.5-22.5-22.5zM439 439.185c-4.136 0-7.5-3.364-7.5-7.5s3.364-7.5 7.5-7.5 7.5 3.364 7.5 7.5-3.364 7.5-7.5 7.5zM363 198.76c4.136 0 7.5 3.364 7.5 7.5s-3.364 7.5-7.5 7.5-7.5-3.364-7.5-7.5 3.364-7.5 7.5-7.5zm126.5-74.262c-4.136 0-7.5-3.364-7.5-7.5s3.364-7.5 7.5-7.5 7.5 3.364 7.5 7.5-3.364 7.5-7.5 7.5z" fill="#000000" opacity="1" data-original="#000000"/><path d="M309.5 355.258v-27.591c0-4.142-3.357-7.5-7.5-7.5s-7.5 3.358-7.5 7.5v31.374a7.5 7.5 0 0 0 3.182 6.132c19.298 13.591 30.818 35.77 30.818 59.328 0 39.977-32.523 72.5-72.5 72.5s-72.5-32.523-72.5-72.5c0-23.559 11.521-45.737 30.818-59.328a7.5 7.5 0 0 0 3.182-6.132V158.79c0-4.142-3.357-7.5-7.5-7.5s-7.5 3.358-7.5 7.5v14.395h-122V54.21c8.729-3.096 15-11.432 15-21.21 0-12.407-10.094-22.5-22.5-22.5S50.5 20.593 50.5 33c0 9.777 6.271 18.114 15 21.21v126.475a7.5 7.5 0 0 0 7.5 7.5h129.5v66.477H43.71c-3.096-8.729-11.433-15-21.21-15-12.406 0-22.5 10.093-22.5 22.5s10.094 22.5 22.5 22.5c9.777 0 18.114-6.271 21.21-15H202.5v31.166H73a7.5 7.5 0 0 0-7.5 7.5v75.133c-8.729 3.096-15 11.432-15 21.21 0 12.407 10.094 22.5 22.5 22.5s22.5-10.093 22.5-22.5c0-9.777-6.271-18.114-15-21.21v-67.633h122v39.43c-21.36 16.536-34 42.131-34 69.242 0 48.248 39.252 87.5 87.5 87.5s87.5-39.252 87.5-87.5c0-27.111-12.64-52.707-34-69.242zM73 25.5c4.136 0 7.5 3.364 7.5 7.5s-3.364 7.5-7.5 7.5-7.5-3.364-7.5-7.5 3.364-7.5 7.5-7.5zM22.5 269.662c-4.136 0-7.5-3.364-7.5-7.5s3.364-7.5 7.5-7.5 7.5 3.364 7.5 7.5-3.364 7.5-7.5 7.5zM73 412.17c-4.136 0-7.5-3.364-7.5-7.5s3.364-7.5 7.5-7.5 7.5 3.364 7.5 7.5-3.364 7.5-7.5 7.5z" fill="#000000" opacity="1" data-original="#000000"/><path d="M279.5 53.5c0-6.276-2.438-12.172-6.87-16.611C268.181 32.446 262.275 30 256 30c-12.958 0-23.5 10.542-23.5 23.5v317.214l-9.545 6.722C207.642 388.221 198.5 405.815 198.5 424.5a57.214 57.214 0 0 0 3.173 18.847 7.5 7.5 0 0 0 14.168-4.927 42.24 42.24 0 0 1-2.341-13.919c0-13.812 6.764-26.822 18.092-34.8l12.727-8.962a7.5 7.5 0 0 0 3.182-6.132v-170.26h17v170.259a7.5 7.5 0 0 0 3.182 6.132l12.727 8.962c11.328 7.979 18.092 20.988 18.092 34.8 0 23.435-19.065 42.5-42.5 42.5a42.222 42.222 0 0 1-23.544-7.136 7.5 7.5 0 0 0-8.336 12.471A57.169 57.169 0 0 0 256 482c31.706 0 57.5-25.794 57.5-57.5 0-18.685-9.142-36.279-24.455-47.064l-9.545-6.722V53.5zm-32 135.847V53.5c0-4.687 3.813-8.5 8.5-8.5 2.272 0 4.414.889 6.023 2.496A8.437 8.437 0 0 1 264.5 53.5v135.847h-17z" fill="#000000" opacity="1" data-original="#000000"/></g></svg>