<svg xmlns="http://www.w3.org/2000/svg" version="1.1" xmlns:xlink="http://www.w3.org/1999/xlink" width="512" height="512" x="0" y="0" viewBox="0 0 64 64" style="enable-background:new 0 0 512 512" xml:space="preserve"><g><path fill="#7acf00" d="M61.99 25.18c.64.52 1.01 1.3 1.01 2.12 0 2.29-2.65 3.56-4.43 2.12L54 25.74 32 8 10 25.74l-4.57 3.68c-.52.42-1.12.61-1.7.61-1.4 0-2.73-1.11-2.73-2.73 0-.82.37-1.6 1.01-2.12L7 21.16l9-7.26L32 1l13.84 11.16c1 3.49 4.1 6.08 7.84 6.32z" opacity="1" data-original="#7acf00"/><path fill="#5cad08" d="M34.02 2.63 20.81 13.28l-9 7.26-4.99 4.02c-.64.52-1.01 1.3-1.01 2.12 0 .75.28 1.38.73 1.85l-1.11.89c-.52.42-1.12.61-1.7.61-1.4 0-2.73-1.11-2.73-2.73 0-.82.37-1.6 1.01-2.12L7 21.16l9-7.26L32 1z" opacity="1" data-original="#5cad08"/><path fill="#c4e2ff" d="M54.25 1C59.08 1 63 4.92 63 9.75s-3.92 8.75-8.75 8.75c-.19 0-.38-.01-.57-.02-3.74-.24-6.84-2.83-7.84-6.32-.22-.77-.34-1.57-.34-2.41C45.5 4.92 49.42 1 54.25 1z" opacity="1" data-original="#c4e2ff"/><path fill="#89c6f7" d="M56.64 17.51c-.19 0-.38-.01-.57-.02-3.74-.24-6.84-2.83-7.84-6.32a8.745 8.745 0 0 1 3.89-9.9c-3.8.95-6.62 4.39-6.62 8.48 0 .84.12 1.64.34 2.41 1 3.49 4.1 6.08 7.84 6.32.19.01.38.02.57.02 1.64 0 3.19-.46 4.51-1.25-.68.17-1.39.26-2.12.26z" opacity="1" data-original="#89c6f7"/><path fill="#7acf00" d="M58 57c1.66 0 3 1.34 3 3s-1.34 3-3 3H6c-.83 0-1.58-.34-2.12-.88S3 60.83 3 60c0-1.66 1.34-3 3-3h48z" opacity="1" data-original="#7acf00"/><path fill="#5cad08" d="M61 60c0 1.66-1.34 3-3 3H6c-.83 0-1.58-.34-2.12-.88S3 60.83 3 60c0-1.66 1.34-3 3-3h.56c0 .83.34 1.58.88 2.12s1.29.88 2.12.88z" opacity="1" data-original="#5cad08"/><path fill="#dedede" d="M54 25.74V57H10V25.74L32 8z" opacity="1" data-original="#dedede"/><path fill="#c4c4c4" d="M19.382 18.175 10 25.74V57h44v-5.978c-18.839-.677-37.69-12.339-34.618-32.847z" opacity="1" data-original="#c4c4c4"/><path fill="#f5b504" d="M36.66 40.78c1.6 1.42 2.53 3.56 2.31 5.92-.32 3.23-2.93 5.89-6.16 6.25A6.991 6.991 0 0 1 25 46c0-2.09.91-3.96 2.36-5.24.41-.36.64-.9.64-1.46V31h8v8.3c0 .56.24 1.1.66 1.48z" opacity="1" data-original="#f5b504"/><path fill="#c0d1f2" d="M36 21v10h-8V21c0-2.21 1.79-4 4-4 1.1 0 2.1.45 2.83 1.17C35.55 18.9 36 19.9 36 21z" opacity="1" data-original="#c0d1f2"/><path fill="#df912e" d="M34.64 52.48c-.58.24-1.19.4-1.83.47A6.991 6.991 0 0 1 25 46c0-2.09.91-3.96 2.36-5.24.41-.36.64-.9.64-1.46V31h4v7.91c0 .56-.23 1.1-.64 1.46A6.961 6.961 0 0 0 29 45.61a7 7 0 0 0 5.64 6.87z" opacity="1" data-original="#df912e"/><path fill="#89c6f7" d="M33.66 17.37A3.96 3.96 0 0 0 32 20.61V31h-4V21c0-2.21 1.79-4 4-4 .59 0 1.15.13 1.66.37z" opacity="1" data-original="#89c6f7"/><path fill="#b4adb5" d="M16 4c1.1 0 2 .9 2 2 0 .55-.22 1.05-.59 1.41-.36.37-.86.59-1.41.59H7c-1.1 0-2-.9-2-2 0-.55.22-1.05.59-1.41C5.95 4.22 6.45 4 7 4z" opacity="1" data-original="#b4adb5"/><path fill="#7a6d79" d="M16 8v5.9l-9 7.26V8z" opacity="1" data-original="#7a6d79"/><path fill="#999899" d="M9.856 4H7c-.55 0-1.05.22-1.41.59C5.22 4.95 5 5.45 5 6c0 1.1.9 2 2 2h2.719c-.086-1.315-.03-2.67.137-4z" opacity="1" data-original="#999899"/><path fill="#5c525b" d="M9.719 8H7v13.16l6.623-5.342C11.022 14.191 9.929 11.227 9.719 8z" opacity="1" data-original="#5c525b"/><g fill="#7a6d79"><path d="M17 52h-2v-2a1 1 0 1 0-2 0v3a1 1 0 0 0 1 1h3a1 1 0 1 0 0-2zM14 48a1 1 0 0 0 1-1v-2a1 1 0 1 0-2 0v2a1 1 0 0 0 1 1zM40 23h3a1 1 0 1 0 0-2h-3a1 1 0 1 0 0 2zM40 27h6a1 1 0 1 0 0-2h-6a1 1 0 1 0 0 2zM40 31h3a1 1 0 1 0 0-2h-3a1 1 0 1 0 0 2zM40 39h3a1 1 0 1 0 0-2h-3a1 1 0 1 0 0 2zM40 35h6a1 1 0 1 0 0-2h-6a1 1 0 1 0 0 2zM21 34c.493 0 .966.181 1.333.509a1 1 0 1 0 1.333-1.49A3.988 3.988 0 0 0 21 32c-2.206 0-4 1.794-4 4s1.794 4 4 4c.985 0 1.932-.361 2.667-1.019a1 1 0 1 0-1.333-1.49A2.002 2.002 0 0 1 19 36c0-1.103.897-2 2-2z" fill="#7a6d79" opacity="1" data-original="#7a6d79"/><circle cx="23" cy="30" r="1" fill="#7a6d79" opacity="1" data-original="#7a6d79"/></g><path fill="#668dea" d="M60.165 7.435c-1.469-1.76-3.625-2.77-5.915-2.77s-4.445 1.01-5.915 2.77a1 1 0 1 0 1.535 1.281c1.088-1.303 2.685-2.051 4.379-2.051s3.291.748 4.379 2.051c.198.237.898.493 1.409.127.45-.322.482-.985.128-1.408z" opacity="1" data-original="#668dea"/><path fill="#668dea" d="M54.25 8.023a4.352 4.352 0 0 0-3.576 1.875 1.001 1.001 0 0 0 1.645 1.139 2.35 2.35 0 0 1 3.864 0c.194.28.943.588 1.392.253.442-.331.567-.938.253-1.392a4.36 4.36 0 0 0-3.578-1.875zM54.25 11.543a1.68 1.68 0 1 0 0 3.359 1.68 1.68 0 0 0 0-3.359z" opacity="1" data-original="#668dea"/></g></svg>