<svg xmlns="http://www.w3.org/2000/svg" version="1.1" xmlns:xlink="http://www.w3.org/1999/xlink" width="512" height="512" x="0" y="0" viewBox="0 0 512 512" style="enable-background:new 0 0 512 512" xml:space="preserve"><g><path d="M489.5 94.496c-9.777 0-18.113 6.274-21.21 15H309.5V53.5c0-14.281-5.563-27.715-15.672-37.836C283.718 5.563 270.281 0 256 0c-29.5 0-53.5 24-53.5 53.5v74.168c0 4.14 3.355 7.5 7.5 7.5s7.5-3.36 7.5-7.5V53.5c0-21.23 17.27-38.5 38.5-38.5 10.277 0 19.95 4.004 27.223 11.27 7.273 7.28 11.277 16.953 11.277 27.23v242.168c0 4.14 3.355 7.5 7.5 7.5s7.5-3.36 7.5-7.5V291.5h122v118.977c-8.73 3.093-15 11.43-15 21.207 0 12.41 10.094 22.5 22.5 22.5s22.5-10.09 22.5-22.5c0-9.778-6.27-18.114-15-21.207V284a7.5 7.5 0 0 0-7.5-7.5H309.5v-62.738h32.29c3.097 8.726 11.433 15 21.21 15 12.406 0 22.5-10.094 22.5-22.5 0-12.41-10.094-22.5-22.5-22.5-9.777 0-18.113 6.27-21.21 15H309.5v-74.266h158.79c3.097 8.73 11.433 15 21.21 15 12.406 0 22.5-10.09 22.5-22.5 0-12.406-10.094-22.5-22.5-22.5zM439 439.184c-4.137 0-7.5-3.364-7.5-7.5 0-4.133 3.363-7.5 7.5-7.5s7.5 3.367 7.5 7.5c0 4.136-3.363 7.5-7.5 7.5zm-76-240.422c4.137 0 7.5 3.363 7.5 7.5 0 4.133-3.363 7.5-7.5 7.5s-7.5-3.367-7.5-7.5c0-4.137 3.363-7.5 7.5-7.5zm126.5-74.266c-4.137 0-7.5-3.363-7.5-7.5 0-4.133 3.363-7.5 7.5-7.5s7.5 3.367 7.5 7.5c0 4.137-3.363 7.5-7.5 7.5zm0 0" fill="#000000" opacity="1" data-original="#000000"/><path d="M309.5 355.258v-27.59c0-4.145-3.355-7.5-7.5-7.5s-7.5 3.355-7.5 7.5v31.371a7.494 7.494 0 0 0 3.184 6.133c19.296 13.594 30.816 35.77 30.816 59.328 0 39.977-32.523 72.5-72.5 72.5s-72.5-32.523-72.5-72.5c0-23.559 11.52-45.734 30.816-59.328a7.494 7.494 0 0 0 3.184-6.133V158.79c0-4.14-3.355-7.5-7.5-7.5s-7.5 3.36-7.5 7.5v14.395h-122V54.21c8.73-3.098 15-11.434 15-21.211 0-12.406-10.094-22.5-22.5-22.5S50.5 20.594 50.5 33c0 9.777 6.27 18.113 15 21.21v126.474c0 4.144 3.355 7.5 7.5 7.5h129.5v66.476H43.71c-3.097-8.726-11.433-15-21.21-15-12.406 0-22.5 10.094-22.5 22.5 0 12.41 10.094 22.5 22.5 22.5 9.777 0 18.113-6.27 21.21-15H202.5v31.168H73a7.5 7.5 0 0 0-7.5 7.5v75.133c-8.73 3.098-15 11.434-15 21.21 0 12.407 10.094 22.5 22.5 22.5s22.5-10.093 22.5-22.5c0-9.776-6.27-18.112-15-21.21v-67.633h122v39.43c-21.36 16.535-34 42.133-34 69.242 0 48.246 39.254 87.5 87.5 87.5s87.5-39.254 87.5-87.5c0-27.11-12.64-52.707-34-69.242zM73 25.5c4.137 0 7.5 3.363 7.5 7.5s-3.363 7.5-7.5 7.5-7.5-3.363-7.5-7.5 3.363-7.5 7.5-7.5zM22.5 269.66c-4.137 0-7.5-3.363-7.5-7.5 0-4.133 3.363-7.5 7.5-7.5s7.5 3.367 7.5 7.5c0 4.137-3.363 7.5-7.5 7.5zM73 412.172c-4.137 0-7.5-3.367-7.5-7.5 0-4.137 3.363-7.5 7.5-7.5s7.5 3.363 7.5 7.5c0 4.133-3.363 7.5-7.5 7.5zm0 0" fill="#000000" opacity="1" data-original="#000000"/><path d="M279.5 53.5c0-6.277-2.438-12.172-6.871-16.61C268.179 32.446 262.273 30 256 30c-12.957 0-23.5 10.543-23.5 23.5v317.215l-9.547 6.723C207.641 388.223 198.5 405.815 198.5 424.5a57.237 57.237 0 0 0 3.172 18.848 7.506 7.506 0 0 0 9.55 4.62 7.502 7.502 0 0 0 4.618-9.546 42.244 42.244 0 0 1-2.34-13.922c0-13.812 6.766-26.82 18.094-34.8l12.726-8.962a7.501 7.501 0 0 0 3.18-6.133V204.348h17v170.257a7.5 7.5 0 0 0 3.184 6.133l12.726 8.961c11.328 7.98 18.094 20.989 18.094 34.801 0 23.434-19.066 42.5-42.5 42.5a42.24 42.24 0 0 1-23.547-7.137 7.5 7.5 0 0 0-10.402 2.07 7.503 7.503 0 0 0 2.066 10.403A57.193 57.193 0 0 0 256 482c31.707 0 57.5-25.793 57.5-57.5 0-18.684-9.14-36.277-24.453-47.062l-9.547-6.723zm-32 135.848V53.5c0-4.688 3.813-8.5 8.5-8.5 2.273 0 4.414.89 6.023 2.496A8.43 8.43 0 0 1 264.5 53.5v135.848zm0 0" fill="#000000" opacity="1" data-original="#000000"/></g></svg>