<svg xmlns="http://www.w3.org/2000/svg" version="1.1" xmlns:xlink="http://www.w3.org/1999/xlink" width="512" height="512" x="0" y="0" viewBox="0 0 512 512" style="enable-background:new 0 0 512 512" xml:space="preserve"><g><g fill="#ffd659"><path d="M504.5 116.996c0 8.285-6.715 15-15 15s-15-6.715-15-15c0-8.281 6.715-15 15-15s15 6.719 15 15zM37.5 262.16c0 8.285-6.715 15-15 15s-15-6.715-15-15c0-8.281 6.715-15 15-15s15 6.719 15 15zM88 33c0 8.285-6.715 15-15 15s-15-6.715-15-15 6.715-15 15-15 15 6.715 15 15zM454 431.684c0 8.285-6.715 15-15 15s-15-6.715-15-15c0-8.282 6.715-15 15-15s15 6.718 15 15zM88 404.672c0 8.281-6.715 15-15 15s-15-6.719-15-15c0-8.285 6.715-15 15-15s15 6.715 15 15zM378 206.262c0 8.281-6.715 15-15 15s-15-6.719-15-15c0-8.285 6.715-15 15-15s15 6.715 15 15zm0 0" fill="#ffd659" opacity="1" data-original="#ffd659"/></g><path fill="#50536e" d="M489.5 94.496c-9.777 0-18.113 6.274-21.21 15H302a7.5 7.5 0 0 0-7.5 7.5c0 4.145 3.355 7.5 7.5 7.5h166.29c3.097 8.73 11.433 15 21.21 15 12.406 0 22.5-10.09 22.5-22.5 0-12.406-10.094-22.5-22.5-22.5zm0 30c-4.137 0-7.5-3.363-7.5-7.5 0-4.133 3.363-7.5 7.5-7.5s7.5 3.367 7.5 7.5c0 4.137-3.363 7.5-7.5 7.5zM210 254.66H43.71c-3.097-8.726-11.433-15-21.21-15-12.406 0-22.5 10.094-22.5 22.5 0 12.41 10.094 22.5 22.5 22.5 9.777 0 18.113-6.27 21.21-15H210c4.145 0 7.5-3.355 7.5-7.5a7.5 7.5 0 0 0-7.5-7.5zm-187.5 15c-4.137 0-7.5-3.363-7.5-7.5 0-4.133 3.363-7.5 7.5-7.5s7.5 3.367 7.5 7.5c0 4.137-3.363 7.5-7.5 7.5zM210 173.184H80.5V54.21c8.73-3.098 15-11.434 15-21.211 0-12.406-10.094-22.5-22.5-22.5S50.5 20.594 50.5 33c0 9.777 6.27 18.113 15 21.21v126.474c0 4.144 3.355 7.5 7.5 7.5h137c4.145 0 7.5-3.356 7.5-7.5a7.5 7.5 0 0 0-7.5-7.5zM73 25.5c4.137 0 7.5 3.363 7.5 7.5s-3.363 7.5-7.5 7.5-7.5-3.363-7.5-7.5 3.363-7.5 7.5-7.5zM446.5 410.477V284a7.5 7.5 0 0 0-7.5-7.5H302a7.5 7.5 0 1 0 0 15h129.5v118.977c-8.73 3.093-15 11.43-15 21.207 0 12.41 10.094 22.5 22.5 22.5s22.5-10.09 22.5-22.5c0-9.778-6.27-18.114-15-21.207zm-7.5 28.707c-4.137 0-7.5-3.364-7.5-7.5 0-4.133 3.363-7.5 7.5-7.5s7.5 3.367 7.5 7.5c0 4.136-3.363 7.5-7.5 7.5zM210 300.828H73a7.5 7.5 0 0 0-7.5 7.5v75.133c-8.73 3.098-15 11.434-15 21.21 0 12.407 10.094 22.5 22.5 22.5s22.5-10.093 22.5-22.5c0-9.776-6.27-18.112-15-21.21v-67.633H210a7.5 7.5 0 1 0 0-15zM73 412.172c-4.137 0-7.5-3.367-7.5-7.5 0-4.137 3.363-7.5 7.5-7.5s7.5 3.363 7.5 7.5c0 4.133-3.363 7.5-7.5 7.5zM302 213.762h39.79c3.097 8.726 11.433 15 21.21 15 12.406 0 22.5-10.094 22.5-22.5 0-12.41-10.094-22.5-22.5-22.5-9.777 0-18.113 6.27-21.21 15H302a7.497 7.497 0 0 0-7.5 7.5 7.5 7.5 0 0 0 7.5 7.5zm61-15c4.137 0 7.5 3.363 7.5 7.5 0 4.133-3.363 7.5-7.5 7.5s-7.5-3.367-7.5-7.5c0-4.137 3.363-7.5 7.5-7.5zm0 0" opacity="1" data-original="#50536e"/><path fill="#cfe0e9" d="M338.414 429.586C338.414 475.098 301.512 512 256 512s-82.414-36.902-82.414-82.414c0-27.875 13.848-52.52 35.027-67.438V47.387C208.613 21.21 229.824 0 256 0c13.082 0 24.93 5.305 33.512 13.879 8.57 8.578 13.879 20.426 13.879 33.512v314.757c21.18 14.918 35.023 39.563 35.023 67.438zm0 0" opacity="1" data-original="#cfe0e9"/><path fill="#abbfcf" d="M338.414 429.586C338.414 475.098 301.512 512 256 512a82.22 82.22 0 0 1-15.453-1.473c38.129-7.23 66.96-40.714 66.96-80.941 0-.434-.007-.863-.019-1.297-.414-16.258-8.531-31.453-21.89-40.867l-13.114-9.23V47.386c0-13.082-5.304-24.93-13.879-33.512a47.457 47.457 0 0 0-18.058-11.29A47.349 47.349 0 0 1 256 0c13.082 0 24.93 5.305 33.512 13.879 8.57 8.578 13.879 20.426 13.879 33.512v314.757c21.18 14.918 35.023 39.563 35.023 67.438zm0 0" opacity="1" data-original="#abbfcf"/><path fill="#8cf2ff" d="M256 481.094c-28.402 0-51.508-23.106-51.508-51.508 0-16.738 8.192-32.504 21.914-42.168l13.11-9.234V47.387c0-9.086 7.394-16.48 16.484-16.48a16.41 16.41 0 0 1 11.672 4.835 16.39 16.39 0 0 1 4.812 11.645v330.797l13.11 9.234c13.722 9.664 21.914 25.43 21.914 42.168 0 28.402-23.106 51.508-51.508 51.508zm0 0" opacity="1" data-original="#8cf2ff"/><path fill="#ff663b" d="m285.594 387.418-13.11-9.234V195.063h-32.968v183.12l-13.11 9.235c-13.722 9.664-21.914 25.43-21.914 42.168 0 28.402 23.106 51.508 51.508 51.508s51.508-23.106 51.508-51.508c0-16.738-8.192-32.504-21.914-42.168zm0 0" opacity="1" data-original="#ff663b"/></g></svg>